PathFileType	4	(X/Y/Z)	C:\Users\Basilio\Documents\Thesis Gigler\squatting_fais\c3dfiles\019\SJ_pre1\markers_experimental.trc
DataRate	CameraRate	NumFrames	NumMarkers	Units	OrigDataRate	OrigDataStartFrame	OrigNumFrames
200.000000	200.000000	4	59	mm	200.000000	733	1173
Frame#	Time	FHD			LBHD			RBHD			C7			T10			CLAV			LSHO			LUUPA			LMUPA			LDUPA			LLEP			LMEP			LRAD			LUL			LRFIN			RSHO			RUPA1			RMUPA			RDUPA			RLEP			RMEP			RRAD			RUL			RUFIN			LASI			RASI			USACR			LSACR			RSACR			LTHI1			LTHI2			LTHI3			LTHI4			LLFC			LTIB1			LTIB2			LTIB3			LTIB4			LLMAL			LMMAL			LHEE			LMT1			LMT2			LMT5			RTHI			RTHI2			RTHI3			RTHI4			RLFC			RTIB1			RTIB2			RTIB3			RTIB4			RLMAL			RMMAL			RHEE			RMT1			RMT2			RMT5			
		X1	Y1	Z1	X2	Y2	Z2	X3	Y3	Z3	X4	Y4	Z4	X5	Y5	Z5	X6	Y6	Z6	X7	Y7	Z7	X8	Y8	Z8	X9	Y9	Z9	X10	Y10	Z10	X11	Y11	Z11	X12	Y12	Z12	X13	Y13	Z13	X14	Y14	Z14	X15	Y15	Z15	X16	Y16	Z16	X17	Y17	Z17	X18	Y18	Z18	X19	Y19	Z19	X20	Y20	Z20	X21	Y21	Z21	X22	Y22	Z22	X23	Y23	Z23	X24	Y24	Z24	X25	Y25	Z25	X26	Y26	Z26	X27	Y27	Z27	X28	Y28	Z28	X29	Y29	Z29	X30	Y30	Z30	X31	Y31	Z31	X32	Y32	Z32	X33	Y33	Z33	X34	Y34	Z34	X35	Y35	Z35	X36	Y36	Z36	X37	Y37	Z37	X38	Y38	Z38	X39	Y39	Z39	X40	Y40	Z40	X41	Y41	Z41	X42	Y42	Z42	X43	Y43	Z43	X44	Y44	Z44	X45	Y45	Z45	X46	Y46	Z46	X47	Y47	Z47	X48	Y48	Z48	X49	Y49	Z49	X50	Y50	Z50	X51	Y51	Z51	X52	Y52	Z52	X53	Y53	Z53	X54	Y54	Z54	X55	Y55	Z55	X56	Y56	Z56	X57	Y57	Z57	X58	Y58	Z58	X59	Y59	Z59	

734	3.665	-33.77767562866212	1650.625732421875	-924.7546386718752	-174.5813598632813	1637.953247070313	-1063.611938476563	-174.2655639648438	1634.548950195313	-924.5994873046877	-234.3591308593751	1481.590454101563	-997.8926391601565	-346.6308593750001	1213.841796875	-1000.332153320313	-109.2182769775391	1408.603515625	-988.1146240234377	-154.748046875	1455.804077148438	-1135.711547851563	-195.4555816650391	1328.578002929688	-1254.839233398438	-202.9717712402344	1284.943115234375	-1233.374755859375	-224.9387512207032	1279.8330078125	-1288.643920898438	-278.2189331054688	1242.583740234375	-1348.649780273438	-348.5059814453126	1253.487915039063	-1328.580688476563	-315.2684020996094	1033.775634765625	-1202.744140625	-299.5128173828126	1002.342651367188	-1260.403564453125	-277.1582031250001	1006.424865722656	-1165.565551757813	-167.9800720214844	1457.745361328125	-857.7280883789065	-288.6714172363282	1370.217041015625	-724.1798706054689	-270.3639831542969	1323	-719.0851440429689	-319.7612609863282	1319.984008789063	-685.4613647460939	-353.5292358398438	1250.535766601563	-654.9437255859376	-409.4510498046876	1269.509643554688	-685.6971435546876	-371.0624694824219	1036.21923828125	-796.5495605468752	-365.2471313476563	1002.333740234375	-736.5924072265626	-324.2098999023438	996.3193969726565	-820.993835449219	-262.3494873046876	978.2757568359377	-1091.914794921875	-279.9010620117188	975.7078247070315	-884.9524536132815	-392.2786865234376	1087.204345703125	-1000.377807617188	-408.0012512207032	1058.487060546875	-1028.623046875	-409.9328613281251	1059.113891601563	-972.948181152344	-327.8882751464844	748.2175292968751	-1214.875244140625	-276.3941650390626	681.9201660156251	-1228.941650390625	-231.9981536865235	694.0417480468751	-1219.999145507813	-289.9788818359376	621.8911743164064	-1225.598266601563	-275.5836181640626	527.2542114257814	-1228.220581054688	-235.5332336425782	379.3460388183594	-1221.205932617188	-304.3800048828126	353.2849121093751	-1269.347290039063	-265.2514038085938	341.3691711425782	-1253.76025390625	-281.1043090820313	259.3726806640626	-1229.874633789063	-386.3846740722657	149.1371002197266	-1254.4560546875	-348.4170532226563	142.9175415039063	-1181.467163085938	-440.4893493652345	122.5997467041016	-1194.940795898438	-241.5651245117188	52.09861373901369	-1225.85791015625	-247.5908355712891	48.3386917114258	-1265.57177734375	-306.3101196289063	41.04109954833985	-1303.692504882813	-343.9939575195313	815.277770996094	-782.7930297851565	-296.3698730468751	771.2776489257815	-766.2940063476564	-269.5827636718751	779.5877685546877	-778.651550292969	-302.3015441894532	692.3753051757814	-746.1088867187501	-299.6733703613282	529.3640136718751	-737.0985107421876	-269.7349243164063	343.8175048828126	-744.0592651367189	-351.0021362304688	283.9400329589844	-700.2794189453126	-309.8953247070313	271.0523681640626	-715.3085327148439	-313.1570739746094	224.0555419921876	-751.0748901367189	-401.8309326171876	153.2793121337891	-719.2361450195314	-356.7193298339844	147.5886840820313	-781.1682739257815	-449.4536132812501	123.3264923095703	-787.1566162109377	-256.5796508789063	48.67116928100587	-725.7973632812501	-269.8635559082032	51.78299713134767	-679.0618896484376	-330.9899291992188	40.69707870483399	-654.1276245117189	
735	3.67	-32.1530876159668	1633.829345703125	-925.2185668945315	-172.9909362792969	1620.154907226563	-1063.93359375	-172.1887969970703	1616.629028320313	-924.896911621094	-232.2967529296876	1465.008666992188	-998.3295898437502	-347.7182922363282	1198.645385742188	-1000.3701171875	-107.8629455566407	1390.627319335938	-988.534851074219	-152.9253234863282	1438.785766601563	-1135.944702148438	-194.9921112060547	1312.035766601563	-1255.156860351563	-203.2069549560547	1268.307861328125	-1233.650024414063	-225.0789947509766	1263.761596679688	-1289.143188476563	-278.5852661132813	1227.405151367188	-1349.3837890625	-348.8057556152344	1239.088623046875	-1329.57421875	-317.6977233886719	1019.174926757813	-1203.166748046875	-302.4601440429688	987.2298583984377	-1260.706909179688	-280.0623168945313	991.717956542969	-1166.1650390625	-165.8871002197266	1440.237182617188	-858.0977783203127	-287.1508789062501	1354.285888671875	-724.5942993164064	-269.5625610351563	1307.205810546875	-719.5539550781251	-318.8684387207032	1304.717041015625	-685.7540893554689	-353.6753845214844	1235.905639648438	-655.3572387695314	-409.5998535156251	1255.32568359375	-686.0966186523439	-374.2805786132813	1021.580993652344	-797.0999755859377	-369.1583251953126	987.2189941406252	-737.0704956054689	-327.8388671875001	981.3225708007815	-821.5656738281252	-265.5390930175782	963.0158691406252	-1092.1630859375	-283.2998657226563	960.267272949219	-885.020935058594	-395.5958862304689	1072.190185546875	-1000.454711914063	-411.1462402343751	1043.592651367188	-1029.226928710938	-413.1962890625001	1044.258544921875	-973.399597167969	-327.4856262207032	733.6502685546876	-1216.266723632813	-274.9930419921876	668.6020507812501	-1231.148681640625	-230.5585937500001	681.2116699218751	-1221.89501953125	-287.4346008300782	608.0020141601564	-1228.3232421875	-271.0543823242188	513.8961791992189	-1231.369262695313	-237.8445739746094	364.7331848144532	-1222.9404296875	-306.4499206542969	340.5510864257813	-1273.438232421875	-268.6195983886719	328.0231628417969	-1255.058227539063	-287.1070861816407	246.7112884521485	-1232.798828125	-396.4573364257814	139.9009552001953	-1252.761474609375	-359.5255432128907	135.0785675048828	-1181.213256835938	-454.0154113769532	104.8722610473633	-1194.988159179688	-247.0205078125001	53.49354934692384	-1226.31005859375	-254.8521575927735	49.56991195678712	-1265.146484375	-310.9761657714844	36.7245101928711	-1305.077514648438	-345.9150695800782	800.7349853515627	-782.2046508789065	-297.3229064941407	757.9777832031251	-765.5261230468751	-268.2158508300782	766.7741088867189	-779.2988891601565	-301.3407287597657	679.0872802734376	-745.3450317382814	-296.2046508789063	516.7152709960939	-735.6038208007814	-270.1767578125001	331.2556152343751	-743.9127807617189	-352.7746582031251	272.0761413574219	-700.7884521484376	-311.7427368164063	259.0110778808594	-717.0339965820314	-316.5977172851563	212.3899536132813	-751.3721313476564	-407.0373840332032	143.2117614746094	-723.7257690429689	-362.5649108886719	136.8679809570313	-786.379089355469	-447.7511596679689	106.9761199951172	-786.5923461914065	-257.3869934082032	49.98933029174806	-724.4570312500001	-271.5287170410157	53.54515838623048	-678.6992187500001	-332.3999328613282	41.60007858276368	-652.0283203125001	
736	3.675	-29.60772514343262	1616.58837890625	-925.3682861328127	-170.3299407958985	1602.086181640625	-1063.91552734375	-169.5921630859375	1598.262329101563	-925.0845336914065	-230.4187011718751	1448.355834960938	-998.7698974609377	-349.0034484863282	1183.356567382813	-1000.255676269531	-106.8025131225586	1372.420166015625	-989.079528808594	-151.0325927734375	1421.673095703125	-1136.323974609375	-194.6416931152344	1295.314208984375	-1255.477905273438	-203.7145080566407	1251.633056640625	-1234.117919921875	-225.2248840332032	1247.6171875	-1290.009887695313	-279.0414123535157	1212.023315429688	-1350.157592773438	-349.1577148437501	1224.49951171875	-1330.544311523438	-321.0192871093751	1004.586120605469	-1203.822875976563	-305.9096374511719	972.6704711914065	-1261.417358398438	-283.4889831542969	976.932312011719	-1166.849975585938	-163.2270660400391	1423.237670898438	-857.8911132812502	-285.5203857421876	1337.989624023438	-724.6895751953126	-268.8262329101563	1290.618774414063	-719.9749145507814	-317.9391784667969	1289.09326171875	-686.0305786132814	-353.8890380859376	1220.562133789063	-655.8206176757814	-409.793182373047	1241.087768554688	-686.3841552734376	-377.6859130859376	1006.956970214844	-797.7376098632815	-372.9075317382813	972.7309570312502	-737.7377319335939	-331.4129028320313	966.3845214843752	-821.9251098632815	-268.4324645996094	947.702331542969	-1092.476440429688	-286.9201354980469	944.9675292968752	-885.1988525390627	-398.7484130859376	1057.111572265625	-1000.897521972656	-414.3321228027345	1028.565551757813	-1029.783569335938	-417.0349426269532	1029.080688476563	-973.8069458007815	-327.6622009277344	719.0566406250001	-1218.21630859375	-273.3960876464844	655.6929931640626	-1234.17431640625	-229.0548248291016	668.4535522460939	-1223.990234375	-283.9479980468751	594.4304809570314	-1231.453369140625	-265.7399597167969	500.8914489746095	-1234.531616210938	-238.5451660156251	350.3728942871094	-1226.177612304688	-309.9034729003907	329.8149414062501	-1274.894775390625	-273.8594970703126	315.2807922363282	-1256.590576171875	-292.5884094238282	234.2711029052735	-1233.084838867188	-402.419158935547	132.1464538574219	-1254.061157226563	-366.9263305664063	127.167953491211	-1180.42333984375	-463.1570434570314	88.01670837402345	-1197.632934570313	-250.9508972167969	54.39147186279298	-1226.516845703125	-257.6475219726563	51.33822631835939	-1265.485473632813	-312.4842834472657	34.96920394897462	-1306.189575195313	-348.1901855468751	786.355163574219	-781.447448730469	-298.6557617187501	744.3650512695314	-764.7954711914064	-270.2333679199219	753.7643432617189	-778.8514404296877	-300.6604309082032	665.8225097656251	-744.2160644531251	-292.1989135742188	504.1356811523439	-734.1577148437501	-270.2457580566407	318.6734008789063	-744.3137207031251	-356.1393127441407	261.3414611816407	-702.8834228515626	-315.2591247558594	247.816635131836	-720.0494995117189	-320.1285705566407	201.5562744140626	-755.4276733398439	-413.0266418457032	134.7369689941407	-728.0449218750001	-369.2791442871094	127.4909973144532	-791.2399902343752	-455.0730895996095	91.15344238281251	-791.686706542969	-261.6142272949219	50.79053878784181	-724.0391845703126	-275.1601562500001	52.8541717529297	-680.1975097656251	-336.3866882324219	40.0077133178711	-650.6588745117189	
737	3.68	-26.39992713928223	1599.498413085938	-924.1907348632815	-168.3236389160157	1584.188598632813	-1064.121215820313	-166.8653564453125	1579.201538085938	-925.404235839844	-228.1868743896485	1431.886596679688	-998.9434814453127	-350.0895385742188	1167.819580078125	-1000.117858886719	-105.1477127075196	1354.219604492188	-989.583923339844	-149.2971496582032	1404.56494140625	-1136.684692382813	-194.6621856689454	1278.557006835938	-1255.837524414063	-204.1767730712891	1234.9970703125	-1234.792358398438	-225.6041564941407	1231.267333984375	-1290.654418945313	-279.5678100585938	1196.434448242188	-1350.855224609375	-349.5148010253907	1209.77294921875	-1331.434326171875	-324.0895080566407	989.8594970703127	-1204.257202148438	-309.3495483398438	957.6890258789065	-1261.923461914063	-286.8192749023438	962.1236572265627	-1167.516723632813	-161.3772277832032	1405.265014648438	-859.2679443359377	-284.0634155273438	1321.668212890625	-724.7770385742189	-268.3359375000001	1273.436279296875	-720.5530395507814	-317.3422546386719	1273.261596679688	-686.2644042968751	-354.3739318847657	1205.026733398438	-656.0156250000001	-409.8559570312501	1226.577270507813	-686.5952148437501	-381.2158203125001	992.0445556640627	-798.108825683594	-376.8375549316407	957.8538818359377	-738.5242309570314	-335.6530151367188	951.4010009765627	-822.3501586914065	-271.7393188476563	932.2834472656252	-1092.811645507813	-290.9248962402344	929.548278808594	-885.2025146484377	-402.0950927734376	1042.003784179688	-1001.078674316406	-417.7949218750001	1013.84375	-1030.123901367188	-420.9053039550782	1013.932312011719	-974.0422973632815	-327.1849670410157	704.3026123046876	-1220.496459960938	-271.0823669433594	642.6322021484376	-1237.2041015625	-226.916000366211	656.2526855468751	-1226.037231445313	-279.8637695312501	581.2218627929689	-1234.537841796875	-260.5790100097657	488.5958862304689	-1237.288330078125	-239.5847778320313	338.0580444335938	-1229.84130859375	-314.1289367675782	320.8409423828126	-1272.977783203125	-277.1168518066407	303.8201599121094	-1259.444458007813	-295.8228454589844	222.6413116455079	-1234.253662109375	-407.4710388183595	124.2567520141602	-1255.557373046875	-372.6097412109376	119.0615615844727	-1180.27197265625	-469.4649047851564	74.32674407958986	-1200.384521484375	-254.1302947998047	54.77454376220705	-1226.21826171875	-260.5387268066407	52.54575347900392	-1265.290771484375	-313.4899597167969	33.54993057250977	-1307.372802734375	-350.4228210449219	772.020935058594	-780.6192626953127	-300.1557922363282	731.2507934570314	-763.7766723632814	-271.9031372070313	741.0751342773439	-778.052673339844	-300.0838623046876	652.8158569335939	-742.5569458007814	-287.9492187500001	492.8048095703126	-732.9145507812501	-269.6967468261719	307.9231567382813	-745.2630615234376	-358.2441101074219	252.5435333251954	-706.1252441406251	-317.8703613281251	237.7497253417969	-723.1754760742189	-322.9342041015626	192.4030151367188	-759.5270996093751	-417.4171447753907	128.052734375	-731.6716308593751	-373.9982910156251	119.55126953125	-795.6770019531252	-460.3013305664064	76.9990692138672	-793.863708496094	-263.8229064941407	50.79853439331056	-725.9187011718751	-279.1311035156251	49.06214141845705	-681.7637329101564	-338.1372070312501	39.58760833740235	-651.5347900390626	
